HIERARCHY
ROOT Hips
{
	OFFSET 0.000000 0.000000 0.000000
	CHANNELS 6 Xposition Yposition Zposition Zrotation Yrotation Xrotation 
	JOINT LHipJoint
	{
		OFFSET 0.000000 0.000000 0.000000
		CHANNELS 3 Zrotation Yrotation Xrotation
		JOINT LeftUpLeg
		{
			OFFSET 1.363060 -1.794630 0.839290
			CHANNELS 3 Zrotation Yrotation Xrotation
			JOINT LeftLeg
			{
				OFFSET 2.448110 -6.726130 0.000000
				CHANNELS 3 Zrotation Yrotation Xrotation
				JOINT LeftFoot
				{
					OFFSET 2.562200 -7.039590 0.000000
					CHANNELS 3 Zrotation Yrotation Xrotation
					JOINT LeftToeBase
					{
						OFFSET 0.157640 -0.433110 2.322550
						CHANNELS 3 Zrotation Yrotation Xrotation
						End Site
						{
							OFFSET 0.000000 0.000000 0.000000
						}
					}
				}
			}
		}
	}
	JOINT RHipJoint
	{
		OFFSET 0.000000 0.000000 0.000000
		CHANNELS 3 Zrotation Yrotation Xrotation
		JOINT RightUpLeg
		{
			OFFSET -1.305520 -1.794630 0.839290
			CHANNELS 3 Zrotation Yrotation Xrotation
			JOINT RightLeg
			{
				OFFSET -2.542530 -6.985550 0.000000
				CHANNELS 3 Zrotation Yrotation Xrotation
				JOINT RightFoot
				{
					OFFSET -2.568260 -7.056230 0.000000
					CHANNELS 3 Zrotation Yrotation Xrotation
					JOINT RightToeBase
					{
						OFFSET -0.164730 -0.452590 2.363150
						CHANNELS 3 Zrotation Yrotation Xrotation
						End Site
						{
							OFFSET 0.000000 0.000000 0.000000
						}
					}
				}
			}
		}
	}
}
MOTION
Frames: 11
Frame Time: 0.008333
7.609192 16.674115 0.031389 21.090104 82.170239 36.302043 -9.421911 0.848011 2.732708 -15.466570 -3.468502 -40.995538 -1.659719 1.454769 38.218074 1.742865 7.758222 -10.610374 -0.305000 -0.000000 -30.991700 11.419893 -3.958939 -0.480419 -5.117237 -9.243764 -2.044125 -0.237011 -2.541244 35.836645 -0.432349 12.367326 27.622514 7.292000 0.000001 -74.739200
7.786185 16.632577 0.034300 22.363530 82.035535 37.342913 -9.330986 0.856260 2.622276 -15.903397 -3.583322 -40.531178 -1.606037 1.506283 39.729503 1.901455 8.379941 -12.017875 -0.580700 0.000000 -31.078200 11.634084 -3.850949 -0.573693 -5.782554 -9.730575 -3.084879 -0.364853 -2.665050 38.583253 -0.621276 11.293045 28.342089 6.896200 -0.000000 -72.827600
7.961513 16.602812 0.036409 23.038921 81.797386 37.821838 -9.244281 0.885035 2.510355 -16.339654 -3.535827 -39.932121 -1.586814 1.525016 40.756503 2.056296 8.963113 -13.365862 -0.874500 -0.000000 -31.725000 11.826568 -3.720536 -0.629487 -6.348571 -10.049758 -4.256853 -0.494218 -2.779473 41.291159 -0.835778 9.692795 29.033571 6.174500 -0.000000 -71.006200
8.135412 16.584687 0.037173 23.176248 81.477633 37.790054 -9.169684 0.929576 2.397833 -16.751724 -3.345000 -39.215445 -1.594370 1.516980 41.354860 2.200351 9.485193 -14.601404 -1.170000 0.000000 -32.735200 11.989937 -3.572636 -0.653013 -6.803900 -10.217782 -5.523268 -0.620236 -2.885133 43.911744 -1.071204 7.610078 29.601892 5.125100 -0.000000 -69.341800
8.308066 16.577802 0.036132 22.877348 81.103644 37.341860 -9.113588 0.985302 2.286563 -17.117156 -3.038309 -38.398840 -1.620070 1.488174 41.590128 2.325940 9.927520 -15.669815 -1.446600 0.000000 -33.899100 12.119762 -3.413366 -0.651606 -7.141358 -10.259414 -6.847417 -0.739558 -2.983484 46.401658 -1.320596 5.131926 29.948280 3.786999 0.000000 -67.851300
8.479565 16.581561 0.033047 22.260730 80.705563 36.589505 -9.080502 1.048633 2.179585 -17.416971 -2.649236 -37.501274 -1.655268 1.444735 41.532426 2.426089 10.278414 -16.521347 -1.683100 0.000000 -35.035899 12.214282 -3.249016 -0.633812 -7.357264 -10.205464 -8.196642 -0.850799 -3.076170 48.723681 -1.574744 2.387073 29.985794 2.243499 -0.000000 -66.513700
8.649968 16.595213 0.028082 21.467213 80.313912 35.671055 -9.070622 1.117679 2.081099 -17.643406 -2.218556 -36.539828 -1.692352 1.392232 41.247504 2.496047 10.536103 -17.115490 -1.860900 -0.000000 -36.029500 12.276265 -3.084864 -0.608855 -7.459478 -10.093735 -9.544799 -0.953914 -3.165031 50.848230 -1.822346 -0.458628 29.649669 0.618599 0.000000 -65.261701
8.819280 16.618045 0.021337 20.577320 79.959777 34.668124 -9.085720 1.190910 1.995996 -17.784840 -1.782275 -35.537931 -1.725033 1.336393 40.799142 2.532788 10.700735 -17.430618 -1.967400 -0.000000 -36.826100 12.306204 -2.925919 -0.584311 -7.444955 -9.955458 -10.872334 -1.049601 -3.249952 52.748657 -2.051764 -3.232321 28.916687 -0.949600 0.000000 -64.054800
8.987440 16.649218 0.013317 19.677931 79.671420 33.670398 -9.123626 1.267838 1.928609 -17.841057 -1.374735 -34.514467 -1.749264 1.281455 40.237811 2.536520 10.779621 -17.463144 -1.997900 0.000000 -37.431200 12.307949 -2.775470 -0.566446 -7.320449 -9.821572 -12.165909 -1.137731 -3.330227 54.405086 -2.251581 -5.765680 27.802034 -2.327800 0.000000 -62.833600
9.154365 16.688028 0.004611 18.826415 79.472499 32.739483 -9.181415 1.348056 1.882057 -17.814646 -1.022188 -33.486458 -1.763223 1.230313 39.600871 2.509699 10.781003 -17.229263 -1.955300 0.000000 -37.886299 12.285111 -2.635409 -0.558958 -7.091615 -9.713830 -13.417310 -1.216788 -3.403766 55.801656 -2.412357 -7.924260 26.363688 -3.417300 -0.000000 -61.609100
9.319944 16.733677 -0.004124 18.066564 79.380199 31.923024 -9.254851 1.431288 1.857615 -17.713579 -0.741263 -32.465747 -1.767166 1.184243 38.911252 2.456634 10.713873 -16.760704 -1.849000 -0.000000 -38.252800 12.241892 -2.506529 -0.563708 -6.768189 -9.647753 -14.623084 -1.283928 -3.468615 56.932090 -2.526306 -9.614307 24.678606 -4.164100 0.000001 -60.294100
